<?xml version="1.0" encoding="utf-8"?>
<!-- Generator: Adobe Illustrator 27.5.0, SVG Export Plug-In . SVG Version: 6.00 Build 0)  -->
<svg version="1.1" id="Layer_1" xmlns="http://www.w3.org/2000/svg" xmlns:xlink="http://www.w3.org/1999/xlink" x="0px" y="0px"
	 viewBox="0 0 4000 4000" style="enable-background:new 0 0 4000 4000;" xml:space="preserve">
<g>
	<rect style="fill:transparent;" width="4000" height="4000"/>
	<g>
		<g>
			<path style="fill:#FFFFFF;" d="M1618.329,1991.895c0,0-158.285,87.26-241.607,244.356
				c-83.322,157.096,172.606,200.059,172.606,200.059l183.775-246.927"/>
		</g>
		<g>
			<path style="fill:#052366;" d="M1549.327,2453.814c-0.962,0-1.929-0.081-2.896-0.244c-6.162-1.033-151.289-26.282-192.808-110.42
				c-17.08-34.617-14.512-73.342,7.637-115.1c84.79-159.868,241.973-247.818,248.618-251.484c8.477-4.658,19.116-1.584,23.779,6.88
				c4.668,8.462,1.592,19.104-6.87,23.774l0,0c-1.538,0.85-154.824,86.819-234.6,237.232c-16.811,31.697-19.16,58.916-7.173,83.208
				c25.649,51.975,113.857,80.286,156.821,89.397l177.222-238.123c5.781-7.754,16.738-9.363,24.492-3.591s9.365,16.736,3.594,24.49
				l-183.774,246.926C1560.035,2451.241,1554.8,2453.812,1549.327,2453.814z"/>
		</g>
		<g>
			<path style="fill:#42BAFC;" d="M1554.461,2387.567c-55.972-121.197-44.779-329.894,109.114-432.744l49.472,108.058"/>
		</g>
		<g>
			<path style="fill:#052366;" d="M1554.473,2405.074c-6.616,0-12.944-3.767-15.899-10.168
				c-64.092-138.76-38.242-352.036,115.274-454.636c8.037-5.361,18.906-3.21,24.277,4.827c5.371,8.037,3.213,18.909-4.824,24.28
				c-152.578,101.973-151.631,305.444-102.949,410.852c4.053,8.774,0.225,19.175-8.55,23.23
				C1559.424,2404.554,1556.929,2405.074,1554.473,2405.074z"/>
		</g>
		<g>
			<path style="fill:#42BAFC;" d="M2606.396,3115.478c-279.047,423.888-927.459,361.794-1030.247-170.219
				c-0.919-4.988-1.838-9.977-2.713-15.009l173.021-234.195c0,0,284.254-67.52,456.137-50.497
				c171.883,17.021,300.707,131.406,320.705,143.265c10.371,6.17,32.425,94.124,51.197,177.221
				C2591.825,3042.883,2606.396,3115.478,2606.396,3115.478z"/>
		</g>
		<g>
			<path style="fill:#FFFFFF;" d="M2807.791,2009.492c0,0,72.959,870.969-178.289,1094.41c-21.994,19.56-56.19,15.993-73.038-8.141
				c-11.351-16.261-24.083-37.702-35.092-64.095c-44.119-105.772-159.483-134.413-222.625-161.92l-752.933-185.254
				c0,0-40.793-505.138,175.323-720.386s702.772-60.679,702.772-60.679"/>
		</g>
		<g>
			<path style="fill:#3A9DEF;" d="M2606.396,3115.478c-279.047,423.888-927.459,361.794-1030.247-170.219l49.622,17.416
				c134.163,395.007,605.09,417.017,878.362,36.407l70.363-33.038C2591.825,3042.883,2606.396,3115.478,2606.396,3115.478z"/>
		</g>
		<g>
			<path style="fill:#052366;" d="M2103.023,3411.773c-39.805,0-79.536-4.075-118.706-12.275
				c-226.23-47.356-386.274-221.672-428.13-466.296c-1.631-9.529,4.771-18.574,14.297-20.205c9.6-1.624,18.574,4.778,20.205,14.302
				c39.341,229.919,189.17,393.635,400.801,437.937c229.336,48.008,464.98-53.796,600.298-259.363
				c5.317-8.081,16.177-10.31,24.243-4.995c8.076,5.315,10.313,16.169,4.995,24.243
				c-72.354,109.917-172.817,193.403-290.522,241.436C2256.924,3396.583,2179.859,3411.773,2103.023,3411.773z"/>
		</g>
		<g>
			<path style="fill:#C9E1F7;" d="M2606.398,2260.056c18.248,129.35-54.654,596.295-136.219,659.657
				c-7.046,5.47-14.966,12.34-23.455,20.391c30.675,22.142,57.849,51.197,74.652,91.542c11.027,26.43,23.717,47.872,35.094,64.106
				c16.847,24.155,51.022,27.699,73.032,8.139c251.261-223.43,178.271-1094.397,178.271-1094.397l-314.359-86.86l-97.319,223.824
				C2396.095,2146.459,2588.151,2130.75,2606.398,2260.056z"/>
		</g>
		<g>
			<path style="fill:#052366;" d="M2596.406,3134.012c-2.598,0-5.21-0.151-7.817-0.459c-18.76-2.209-35.698-12.332-46.475-27.771
				c-14.492-20.757-26.904-43.425-36.895-67.378c-34.434-82.549-118.716-115.31-180.254-139.229
				c-11.357-4.414-22.109-8.594-31.831-12.783l-751.499-184.902c-7.319-1.799-12.661-8.079-13.267-15.588
				c-1.694-20.955-38.926-515.737,180.415-734.197c92.1-91.726,246.367-131.873,446.157-116.106
				c148.97,11.76,269.219,49.544,274.263,51.145c9.214,2.925,14.307,12.764,11.382,21.978c-2.92,9.209-12.764,14.312-21.973,11.387
				c-4.775-1.511-479.087-148.826-685.122,56.401c-189.37,188.606-175.347,615.474-171.021,694.055l740.454,182.185
				c0.962,0.237,1.904,0.554,2.813,0.95c9.434,4.111,20.352,8.354,31.909,12.847c67.402,26.199,159.712,62.08,199.878,158.381
				c9.033,21.646,20.234,42.107,33.291,60.815c5.137,7.356,12.9,11.987,21.865,13.044c9.141,1.084,18.291-1.831,25.19-7.964
				c241.909-215.137,173.203-1071.248,172.48-1079.871c-0.806-9.631,6.348-18.096,15.981-18.901
				c9.658-0.784,18.096,6.35,18.901,15.981c0.186,2.188,18.188,221.76,5.112,465.811
				c-17.734,330.869-81.396,547.253-189.214,643.137C2628.74,3128.004,2612.783,3134.012,2596.406,3134.012z"/>
		</g>
		<g>
			<path style="fill:#42BAFC;" d="M2440.655,2104.712c-175.757,193.983-569.365,203.965-655.507-69.001"/>
		</g>
		<g>
			<path style="fill:#FFFFFF;" d="M1876.6,2082.956c0,0,52.888,85.899,162.5,85.941c109.612,0.042,184.596-26.059,184.137-38.147
				c-0.459-12.088-134.53-20.831-134.53-20.831"/>
		</g>
		<g>
			<path style="fill:#052366;" d="M2104.61,2263.573c-31.86,0-63.506-3.232-94.185-9.939
				c-121.118-26.479-207.051-102-241.968-212.654c-2.91-9.219,2.202-19.05,11.421-21.961c9.229-2.91,19.053,2.207,21.963,11.423
				c30.982,98.188,107.715,165.305,216.06,188.992c145.102,31.711,313.579-20.295,409.785-126.475
				c6.489-7.161,17.563-7.71,24.722-1.218c7.163,6.492,7.71,17.561,1.216,24.724
				C2369.805,2208.975,2235.503,2263.573,2104.61,2263.573z"/>
		</g>
		<g>
			<path style="fill:#052366;" d="M2266.002,2129.833c-17.163,15.949-37.907,27.319-59.471,36.038
				c-62.371,25.151-131.612,22.857-195.859,6.95c-11.603-2.715-8.546-19.923,3.388-18.309c30.625,5.609,62.27,9.525,93.38,7.105
				c35.307-1.982,70.647-11.009,101.609-27.845c12.509-6.799,24.705-15.012,34.747-25.037
				C2258.079,2092.949,2281.073,2114.645,2266.002,2129.833L2266.002,2129.833z"/>
		</g>
		<g>
			<path style="fill:#052366;" d="M1884.897,2064.994c8.902,27.612,30.793,50.59,57.684,61.535
				c10.443,4.822,4.458,20.672-6.543,17.41c-35.304-9.711-65.533-35.951-80.343-69.548
				C1848.125,2053.741,1878.988,2043.779,1884.897,2064.994L1884.897,2064.994z"/>
		</g>
		<g>
			<g>
				<path style="fill:#CAD3E0;" d="M2007.694,2838.575c-33.3,33.87-233.013,106.771-322.849,121.517
					c-69.401,11.421-136.833-17.854-163.919-31.725c-8.008-4.113-12.471-6.869-12.471-6.869l-478.892-107.208l377.547-206.583
					l600.584,158.011c0,0,4.857,5.689,9.014,14.659C2023.448,2794.817,2028.261,2817.702,2007.694,2838.575z"/>
			</g>
			<g>
				<path style="fill:#A7B9CE;" d="M2007.694,2838.575c-33.3,33.87-233.013,106.771-322.849,121.517
					c-69.401,11.421-136.833-17.854-163.919-31.725c24.461-7.482,55.004-9.67,77.277-1.618
					c60.037,21.792,201.201-38.245,268.895-57.017c67.694-18.772,36.188-64.85,36.188-64.85l70.976-43.934
					c0.482-2.362,15.184,3.72,42.446,19.429C2023.448,2794.817,2028.261,2817.702,2007.694,2838.575z"/>
			</g>
			<g>
				<path style="fill:#052366;" d="M1652.261,2980.203c-73.228,0.002-136.558-34.248-150.327-42.236l-476.211-106.592
					c-7.109-1.592-12.49-7.419-13.511-14.634c-1.016-7.214,2.539-14.304,8.931-17.8l377.554-206.589
					c3.926-2.146,8.53-2.71,12.856-1.572l600.61,158.005c3.457,0.908,6.548,2.852,8.867,5.571
					c15.117,17.729,34.394,60.72-0.845,96.521c-38.843,39.458-248.399,112.686-332.51,126.504
					C1675.733,2979.342,1663.868,2980.203,1652.261,2980.203z M1517.642,2906.585c0.811,0.5,82.285,49.727,164.36,36.25
					c90.752-14.907,283.96-86.777,313.232-116.516c17.012-17.278,7.959-36.45,2.119-45.234l-587.969-154.678l-330.698,180.952
					l433.608,97.056C1514.185,2904.837,1515.991,2905.572,1517.642,2906.585L1517.642,2906.585z"/>
			</g>
			<g>
				<g>
					<path style="fill:#CAD3E0;" d="M1625.772,2883.69c0.481,28.268-24.33,50.322-52.335,46.56l-642.285-86.554
						c-16.453-2.232-30.456-13.041-36.669-28.443c-21.879-54.479-42.796-109.571-62.706-165.275
						c-0.788-2.056-1.313-3.588-1.575-4.42c-0.175-0.482-0.263-0.743-0.263-0.743c-69.313-194.594-126.374-396.758-170.132-607.148
						c-5.776-27.743,14.571-53.954,42.839-55.53c253.186-14.309,493.813,49.622,728.446,151.361
						c10.852,4.681,19.472,13.39,24.067,24.286c3.15,7.439,6.257,14.833,9.32,22.272c0,0,0.044,0.131,0.131,0.438
						C1560.922,2413.375,1621.965,2647.527,1625.772,2883.69z"/>
				</g>
				<g>
					
						<ellipse transform="matrix(0.9654 -0.2608 0.2608 0.9654 -588.6197 376.1583)" style="fill:#A7B9CE;" cx="1122.918" cy="2405.784" rx="66.547" ry="96.867"/>
				</g>
				<g>
					<path style="fill:#A7B9CE;" d="M1625.772,2883.69c0.481,28.268-24.33,50.322-52.335,46.56l-642.285-86.554
						c-16.453-2.232-30.456-13.041-36.669-28.443c-21.879-54.479-42.796-109.571-62.706-165.275
						c8.752,23.061,49.491,116.747,141.777,138.845c105.458,25.249,555.775,135.958,569.209-83.448
						c13.084-214.591-74.345-512.017-78.152-524.881C1560.922,2413.375,1621.965,2647.527,1625.772,2883.69z"/>
				</g>
				<g>
					<path style="fill:#052366;" d="M1579.624,2948.167c-2.832,0-5.679-0.19-8.525-0.574l-642.295-86.55
						c-22.676-3.057-42.046-18.093-50.552-39.246c-100.757-250.696-180.024-513.308-235.606-780.545
						c-3.769-18.142,0.537-36.975,11.816-51.675c11.348-14.788,28.56-23.872,47.217-24.927l0,0
						c231.904-13.083,465.835,35.464,736.382,152.786c15.029,6.519,26.821,18.418,33.203,33.511
						c112.046,264.69,168.315,504.282,172.021,732.461c0.303,18.586-7.495,36.328-21.387,48.674
						C1610.161,2942.513,1595.113,2948.167,1579.624,2948.167z M703.653,1999.603L703.653,1999.603
						c-8.472,0.479-16.279,4.595-21.421,11.292c-5.146,6.704-7.031,14.954-5.308,23.23
						c55.156,265.22,133.823,525.838,233.809,774.614c3.813,9.485,12.529,16.235,22.749,17.612l642.295,86.55
						c8.276,1.123,16.611-1.431,22.866-6.985c6.265-5.564,9.78-13.56,9.643-21.938c-3.638-223.596-58.999-458.911-169.258-719.387
						c-2.866-6.775-8.154-12.112-14.892-15.034C1158.785,2034.493,929.834,1986.827,703.653,1999.603z"/>
				</g>
				<g>
					<path style="fill:#A7B9CE;" d="M829.938,2644.814c0.044,0.262,0.131,0.524,0.263,0.743
						C830.026,2645.076,829.938,2644.814,829.938,2644.814z"/>
				</g>
				<g>
					
						<ellipse transform="matrix(0.9654 -0.2608 0.2608 0.9654 -590.8793 378.7084)" style="fill:#FFFFFF;" cx="1131.38" cy="2415.549" rx="66.547" ry="96.867"/>
				</g>
			</g>
			<g>
				<g>
					<path style="fill:#FFFFFF;" d="M1072.511,2799.106c0,0-48.821-18.227-61.189,23.434
						c-12.368,41.661,4.882,88.855,30.595,108.709c25.712,19.854,59.236-15.623,59.236-15.623"/>
				</g>
				<g>
					<path style="fill:#052366;" d="M1059.361,2954.913c-9.443,0.002-19.053-2.793-28.145-9.812
						c-29.805-23.018-51.67-77.017-36.67-127.542c4.634-15.62,14.038-27.341,27.183-33.894c24.746-12.336,53.682-2.156,56.904-0.955
						c9.058,3.381,13.657,13.462,10.274,22.52c-3.369,9.028-13.379,13.638-22.446,10.303c-4.58-1.653-19.732-5.271-29.194-0.498
						c-2.754,1.392-6.704,4.202-9.165,12.485c-10.244,34.524,4.399,74.343,24.512,89.875c12.232,9.429,35.635-13.596,35.859-13.835
						c6.665-6.96,17.729-7.244,24.727-0.591c6.982,6.648,7.3,17.668,0.674,24.678
						C1102.344,2939.847,1081.299,2954.913,1059.361,2954.913z"/>
				</g>
				<g>
					<path style="fill:#FFFFFF;" d="M1290.801,2904.125c0,0-33.431,80.735-117.185,23.018c0,0-38.595,39.032-80.69-5.208
						c-13.084-13.74-22.492-33.081-28.093-53.779c-12.471-45.903-6.126-98.588,21.135-112.021
						c31.987-15.797,57.717-4.288,73.252,30.193c3.632,8.052,6.739,17.416,9.189,27.962c0,0,5.645-43.19,42.096-43.409
						c28.268-0.174,40.214,20.436,46.209,45.071c1.707,7.132,2.932,14.616,3.938,22.011
						C1264.984,2870.913,1290.801,2904.125,1290.801,2904.125z"/>
				</g>
				<g>
					<path style="fill:#C9E1F7;" d="M1290.801,2904.125c0,0-33.431,80.735-117.185,23.018c0,0-38.595,39.032-80.69-5.208
						c-13.084-13.74-22.492-33.081-28.093-53.779c1.925-3.107,3.107-4.813,3.107-4.813s19.56,42.095,55.573,40.345
						c36.013-1.751,29.493-113.028,29.493-113.028l16.103,67.869c0,0,17.328,44.721,49.666,36.057
						c32.294-8.708,24.286-74.214,24.286-74.214l13.653-4.42c1.707,7.132,2.932,14.616,3.938,22.011
						C1264.984,2870.913,1290.801,2904.125,1290.801,2904.125z"/>
				</g>
				<g>
					<path style="fill:#052366;" d="M1229.532,2965.465c-17.402,0-35.781-5.667-54.946-16.958
						c-9.014,5.82-22.827,12.209-39.658,12.034c-19.722-0.193-38.13-9.128-54.707-26.558
						c-33.901-35.654-44.155-96.497-36.758-138.171c4.854-27.378,16.87-46.519,34.741-55.356
						c26.797-13.257,47.202-9.06,59.609-3.208c13.11,6.182,24.18,17.366,32.861,33.008c9.248-9.658,22.183-16.753,39.736-16.858
						c0.156-0.002,0.317-0.002,0.474-0.002c56.289,0,64.141,59.739,67.104,82.271c3.052,23.191,20.254,49.526,26.626,57.717
						c3.862,4.966,4.761,11.626,2.354,17.439c-0.674,1.633-16.987,40.098-55.527,51.492
						C1244.331,2964.415,1237.022,2965.465,1229.532,2965.465z M1173.628,2909.625c3.447,0,6.914,1.013,9.927,3.088
						c22.353,15.403,41.855,20.784,57.959,16.03c14.189-4.194,23.672-15.596,28.726-23.418
						c-8.818-13.359-23.506-38.882-26.958-65.093c-5.664-43.054-16.607-51.831-32.407-51.831c-0.088,0-0.171,0-0.259,0
						c-20.225,0.122-24.443,25.388-24.854,28.269c-1.201,8.328-8.164,14.685-16.572,15.054c-8.247,0.359-15.889-5.242-17.813-13.435
						c-6.108-26.057-16.226-43.594-28.496-49.38c-7.891-3.723-17.705-2.744-29.16,2.925c-7.28,3.601-13.037,14.568-15.791,30.093
						c-5.796,32.661,2.964,81.963,27.661,107.93c9.8,10.308,19.785,15.581,29.678,15.679c0.093,0,0.19,0.002,0.283,0.002
						c14.38,0,25.517-10.61,25.625-10.718C1164.571,2911.39,1169.082,2909.625,1173.628,2909.625z"/>
				</g>
				<g>
					<path style="fill:#052366;" d="M1185.775,2816.554c-3.795,14.568-6.72,32.231-4.517,46.882
						c0.866,5.839-3.166,11.273-9.005,12.139c-4.855,0.719-9.432-1.958-11.334-6.234c-6.227-14.374-8.037-28.004-9.317-42.805
						c-0.35-4.969-0.625-9.726-0.533-15.17C1152.822,2784.738,1191.881,2790.562,1185.775,2816.554L1185.775,2816.554z"/>
				</g>
			</g>
			<g>
				<path style="fill:#052366;" d="M1664.58,2906.756c-4.526,0-9.058-0.513-13.525-1.538l-28.701-6.597
					c-8.242-1.895-13.389-10.115-11.494-18.357c1.894-8.247,10.083-13.376,18.359-11.497l28.696,6.597
					c5.6,1.289,11.431,0.925,16.836-1.047l187.1-68.333c7.925-2.893,16.738,1.184,19.639,9.133
					c2.905,7.944-1.187,16.738-9.131,19.641l-187.099,68.33C1678.584,2905.526,1671.592,2906.756,1664.58,2906.756z"/>
			</g>
			<g>
				<path style="fill:#052366;" d="M1840.547,2823.99c-0.967,0-1.948-0.129-2.925-0.4l-214.878-59.507
					c-5.82-1.611-9.233-7.639-7.622-13.462c1.616-5.823,7.646-9.241,13.462-7.622l214.878,59.507
					c5.82,1.611,9.233,7.639,7.622,13.462C1849.741,2820.814,1845.342,2823.99,1840.547,2823.99z"/>
			</g>
			<g>
				<path style="fill:#052366;" d="M1769.82,2866.844c-0.952,0-1.924-0.127-2.891-0.391l-144.15-39.417
					c-5.825-1.594-9.258-7.61-7.666-13.438c1.592-5.823,7.588-9.265,13.438-7.666l144.15,39.417
					c5.825,1.594,9.258,7.61,7.666,13.438C1779.038,2863.648,1774.629,2866.844,1769.82,2866.844z"/>
			</g>
			<g>
				<path style="fill:#052366;" d="M1666.841,2831.314c-3.833,0-7.554-2.019-9.556-5.601c-2.949-5.273-1.069-11.938,4.204-14.888
					l66.27-37.078c5.264-2.959,11.938-1.067,14.888,4.204c2.949,5.273,1.069,11.938-4.204,14.888l-66.27,37.078
					C1670.484,2830.865,1668.648,2831.314,1666.841,2831.314z"/>
			</g>
		</g>
		<g>
			<g>
				
					<ellipse transform="matrix(0.26 -0.9656 0.9656 0.26 -97.254 4406.356)" style="fill:#42BAFC;" cx="2826.168" cy="2266.629" rx="236.946" ry="181.615"/>
			</g>
			<g style="opacity:0.6;">
				<path style="fill:#FFFFFF;" d="M2731.743,2083.106c0,0-60.93,73.295-51.383,113.22c9.547,39.925,51.208-11.283,79.85-36.453
					s69.001-30.812,65.963-40.359c-3.038-9.547,34.146-82.888-51.277-61.189"/>
			</g>
			<g>
				<path style="fill:#052366;" d="M2801.743,2517.85c-14.033,0-28.003-1.826-41.724-5.52
					c-106.021-28.545-162.598-161.987-126.123-297.468c36.479-135.483,152.437-222.473,258.423-193.933
					c106.016,28.543,162.593,161.985,126.118,297.466c-17.446,64.81-53.379,120.674-101.177,157.3
					C2881.006,2503.477,2841.123,2517.85,2801.743,2517.85z M2850.767,2050.455c-77.676,0-155.469,71.003-183.071,173.508
					c-31.455,116.841,14.043,231.038,101.426,254.563c41.47,11.169,86.509,0.295,126.851-30.62
					c41.719-31.968,73.208-81.196,88.667-138.613c31.455-116.841-14.043-231.035-101.421-254.561
					C2872.5,2051.846,2861.631,2050.455,2850.767,2050.455z"/>
			</g>
			<g>
				<path style="fill:#FFFFFF;" d="M2736.359,2800.418c-57.324,10.108-100.382,9.802-132.194,2.056
					c-95.306-23.148-89.967-112.941-66.075-188.773c3.194-10.108,6.695-19.91,10.371-29.318
					c18.597-48.047,40.783-84.717,40.783-84.717s67.257-22.141,105.02-110.665c37.72-88.523-8.27-196.562,131.931-269.507
					c67.738-35.226,110.009-12.778,135.651,19.778c27.393,34.876,35.751,81.347,35.751,81.347S3104.76,2735.306,2736.359,2800.418z"
					/>
			</g>
			<g>
				<path style="fill:#C9E1F7;" d="M2736.359,2800.418c-57.324,10.108-100.382,9.802-132.194,2.056
					c-40.477-84.803-62.925-152.453-66.075-188.773c-1.619-18.51,1.794-28.925,10.327-29.318h0.044l129.306-25.073
					c5.601,4.857,118.895,103.64,197.875,48.397c123.456-86.351,154.248-378.73,87.517-466.64c-0.481-0.613-0.919-1.225-1.313-1.795
					c27.393,34.876,35.751,81.347,35.751,81.347S3104.76,2735.306,2736.359,2800.418z"/>
			</g>
			<g>
				<path style="fill:#052366;" d="M2657.91,2825.582c-63.105,0-107.148-17.764-131.387-53.135
					c-64.473-94.072,43.115-274.216,47.729-281.838c2.148-3.55,5.483-6.218,9.414-7.537c2.485-0.85,60.601-21.497,94.482-100.933
					c10.786-25.298,14.185-52.849,17.783-82.017c8.193-66.414,17.476-141.687,122.163-196.138
					c43.857-22.808,83.154-26.006,116.782-9.473c62.725,30.823,79.263,119.272,79.937,123.022
					c2.354,11.252,58.35,288.794-61.641,465.967c-49.194,72.639-121.123,117.771-213.784,134.143
					C2709.424,2822.938,2682.246,2825.582,2657.91,2825.582z M2601.25,2513.721c-29.351,50.586-87.378,178.391-45.835,238.958
					c25.127,36.646,84.976,46.907,177.881,30.493c82.949-14.656,147.153-54.763,190.835-119.211
					c111.694-164.802,56.885-437.039,56.318-439.771c-0.22-1.189-14.272-75.383-61.104-98.306
					c-23.071-11.292-51.699-8.215-85.098,9.158c-88.35,45.952-95.742,105.898-103.574,169.365
					c-3.735,30.295-7.598,61.624-20.327,91.465C2676.524,2475.179,2620.415,2505.396,2601.25,2513.721z"/>
			</g>
			<g>
				<path style="fill:#42BAFC;" d="M1966.918,2329.119c0,0,73.557-33.198,117.171-22.132
					c43.614,11.066,505.138,192.681,505.138,192.681s244.107,120.427,173.804,297.484c-61.84,157.53-573.162,135.399-735.575,29.293
					"/>
			</g>
			<g style="opacity:0.6;">
				<path style="fill:#FFFFFF;" d="M2766.115,2788.823c16.453-151.317-185.579-250.955-185.579-250.955
					s-461.52-181.641-505.146-192.711c-32.425-8.227-81.478,8.051-104.451,16.978l-4.026-32.994c0,0,73.558-33.212,117.185-22.142
					c43.627,11.071,505.146,192.668,505.146,192.668S2825.713,2616.326,2766.115,2788.823z"/>
			</g>
			<g>
				<path style="fill:#3A9DEF;" d="M2763.051,2797.136c-61.874,157.53-573.191,135.432-735.578,29.318l-16.409-134.775
					l-44.152-362.539c0,0,11.027-4.989,27.043-10.459l18.991,372.778c154.554,117.273,663.071,175.252,735.797,22.491
					c7.133-14.833,11.902-29.406,14.659-43.627C2778.279,2707.913,2781.518,2750.578,2763.051,2797.136z"/>
			</g>
			<g>
				<path style="fill:#052366;" d="M2425.352,2928.204c-155.752,0.005-322.949-31.887-407.471-87.104
					c-8.091-5.288-10.366-16.133-5.078-24.226c5.293-8.096,16.138-10.361,24.229-5.081
					c121.045,79.082,437.837,107.214,605.303,53.757c56.128-17.917,92.231-43.782,104.404-74.792
					c61.924-155.952-151.841-268.525-164.683-275.1c-159.497-62.761-468.677-183.179-502.275-191.704
					c-30.806-7.813-86.724,12.6-105.669,21.123c-8.813,3.962-19.175,0.042-23.145-8.767c-3.97-8.811-0.054-19.167,8.75-23.145
					c8.106-3.655,80.523-35.359,128.677-23.142c44.18,11.211,488.359,185.925,507.246,193.359c0.449,0.178,0.898,0.374,1.333,0.588
					c2.598,1.282,64.233,32.002,117.9,85.667c73.672,73.674,95.952,154.583,64.429,233.977
					c-16.362,41.672-58.867,73.752-126.318,95.283C2590.376,2918.885,2509.527,2928.201,2425.352,2928.204z"/>
			</g>
			<g>
				<g>
					<path style="fill:#FFFFFF;" d="M2226.662,2685.859c0,0-60.168,123.092-164.838,159.455
						c-69.313,24.111-109.221-8.008-124.405-44.896c0,0-114.559,34.7-147.991-50.803c0,0-89.398-4.77-103.27-93.293
						c-13.696-87.254,57.761-181.291,59.818-183.96c-2.538,0.962-91.98,35.226-124.055,41.614
						c-32.556,6.52-85.504-44.24-39.514-103.269c10.546-13.521,28.924-27.437,52.685-40.258c0.044-0.044,0.087-0.044,0.087-0.044
						c79.99-43.233,221.024-74.696,331.732-41.264c0,0,194.594,38.814,247.41,228.594
						C2224.605,2594.492,2229.506,2636.938,2226.662,2685.859z"/>
				</g>
				<g>
					<path style="fill:#C9E1F7;" d="M2226.662,2685.859c0,0-60.168,123.092-164.838,159.455
						c-69.313,24.111-109.221-8.008-124.405-44.896c0,0-114.559,34.7-147.991-50.803c0,0-89.398-4.77-103.27-93.293
						c-13.696-87.254,57.761-181.291,59.818-183.96c-2.538,0.962-91.98,35.226-124.055,41.614
						c-32.556,6.52-85.504-44.24-39.514-103.269c10.546-13.521,28.924-27.437,52.685-40.258
						c-1.838,1.619-38.464,33.607-21.004,65.856c17.897,33.082,184.923-16.015,184.923-16.015s-78.459,118.104-56.667,194.287
						c21.442,74.871,81.04,2.495,83.053,0.044c-0.963,2.056-30.981,65.462,26.649,110.271
						c58.549,45.553,117.841-21.354,117.841-21.354s-41.045,74.433,63.756,85.154c104.758,10.72,105.458-124.974,105.458-124.974
						s33.037-61.043,75.22-105.983C2224.605,2594.492,2229.506,2636.938,2226.662,2685.859z"/>
				</g>
				<g>
					<path style="fill:#052366;" d="M2017.227,2871.068c-43.325,0.002-73.062-22.988-89.155-50.249
						c-45.825,9.614-119.351,7.258-150.537-54.885c-37.71-5.938-97.158-33.403-108.682-106.89
						c-8.848-56.409,14.072-114.053,34.79-152.4c-27.896,9.954-60.732,20.996-78.296,24.509
						c-23.677,4.736-51.914-9.729-67.134-34.392c-8.648-14.004-24.937-51.472,10.405-96.814
						c52.09-66.836,252.959-132.607,402.617-87.808c8.896,1.902,76.558,17.61,142.793,68.433
						c64.604,49.57,139.619,142.947,130.093,306.287c-0.137,2.317-0.732,4.583-1.748,6.667
						c-2.588,5.291-64.59,130.032-174.78,168.325C2049.151,2868.26,2032.354,2871.065,2017.227,2871.068z M1937.388,2782.911
						c6.934,0,13.443,4.131,16.206,10.833c7.651,18.589,32.964,59.204,102.505,35.042
						c87.671-30.469,143.452-129.128,153.271-147.642c5.923-117.095-33.315-208.855-116.65-272.798
						c-63.164-48.464-128.574-61.931-129.224-62.061c-0.552-0.11-1.099-0.247-1.641-0.41
						c-140.913-42.568-326.479,25.364-365.63,75.591c-15.601,20.017-18.521,40.227-8.228,56.907
						c8.071,13.071,22.29,20.095,30.483,18.455c30.723-6.145,120.376-40.491,121.274-40.837c7.314-2.817,15.625-0.405,20.317,5.891
						c4.683,6.296,4.604,14.941-0.195,21.152c-0.679,0.884-68.975,90.706-56.445,170.586c11.558,73.674,83.853,78.374,86.924,78.538
						c6.86,0.366,12.871,4.709,15.371,11.106c27.08,69.272,122.588,41.599,126.636,40.386
						C1934.029,2783.15,1935.723,2782.911,1937.388,2782.911z M2226.646,2685.841h0.049H2226.646z"/>
				</g>
				<g>
					<path style="fill:#42BAFC;" d="M1966.918,2329.119c0,0-69.914-3.905-70.976,13.887
						c-1.062,17.792,149.524,62.057,185.978,180.53c36.453,118.473,28.208,142.775,88.095,163.606
						c59.888,20.83,56.633-1.302,56.633-1.302C2240.317,2498.367,2125.679,2354.168,1966.918,2329.119z"/>
				</g>
				<g>
					<path style="fill:#052366;" d="M2210.288,2711.339c-11.704,0-26.636-3.237-45.308-9.731
						c-54.6-18.992-61.343-43.679-79.365-109.656c-4.702-17.205-10.552-38.613-18.335-63.909
						c-23.638-76.826-99.98-120.742-145.591-146.982c-28.784-16.56-41.924-24.116-41.035-38.97
						c1.304-21.909,30.61-31.438,87.119-28.262c0.513,0.027,1.025,0.083,1.533,0.161c171.465,27.056,286.02,183.423,272.681,372.017
						c0.098,5.574-2.051,12.966-8.608,18.391C2227.788,2709.019,2220.196,2711.339,2210.288,2711.339z M2211.49,2688.05
						c0,0.007,0.005,0.015,0.005,0.02C2211.494,2688.065,2211.49,2688.057,2211.49,2688.05z M1922.036,2345.799
						c4.624,2.783,9.917,5.83,14.927,8.711c46.274,26.619,132.407,76.169,159.595,164.524c7.925,25.762,13.848,47.432,18.604,64.844
						c17.388,63.64,20.518,75.107,59.883,88.799c21.338,7.422,31.992,8.232,36.597,8.04
						c10.698-170.652-92.349-311.636-246.338-336.345C1949.829,2343.563,1933.37,2344.215,1922.036,2345.799z"/>
				</g>
				<g>
					<path style="fill:#052366;" d="M1733.132,2460.494c27.547-25.31,54.076-50.745,86.94-69.414
						c11.773-5.97,21.757,10.676,10.996,18.244c-27.3,20.603-50.149,48.701-72.173,74.874
						C1742.678,2502.723,1715.996,2478.251,1733.132,2460.494L1733.132,2460.494z"/>
				</g>
				<g>
					<path style="fill:#052366;" d="M1775.934,2760.786c-47.231-62.265,61.718-203.455,119.613-230.318
						c5.309-2.546,11.676-0.307,14.222,5c2.525,5.241,0.337,11.517-4.783,14.119c-34.041,20.59-58.771,55.483-79.125,89.17
						c-10.091,17.592-18.778,36.076-24.102,54.61c-3.496,12.966-5.938,25.767-2.754,37.843c1.134,3.653,2.739,5.811,4.636,8.199
						C1817.467,2758.01,1790.491,2778.922,1775.934,2760.786L1775.934,2760.786z"/>
				</g>
				<g>
					<path style="fill:#052366;" d="M1920.289,2804.059c-4.298-35.879,9.617-72.323,32.719-99.361
						c1.296-1.669,4.143-4.877,5.683-6.332c0,0,5.927-6.044,5.927-6.044c7.637-6.124,17.781-20.374,27.629-10.006
						c8.415,10.249-5.242,18.487-10.895,25.83c0,0-4.49,5.724-4.49,5.724c-7.212,9.27-13.109,20.002-17.311,30.933
						c-5.991,16.569-8.708,34.893-5.026,51.954C1958.668,2819.494,1925.818,2826.56,1920.289,2804.059L1920.289,2804.059z"/>
				</g>
			</g>
		</g>
		<g>
			<g>
				<path style="fill:#FFFFFF;" d="M1464.48,1507.15v227.674c0,0,4.901,48.222,45.203,110.315
					c51.897,80.121,162.562,183.347,397.195,236.12c416.623,93.774,898.534-7.351,1041.537-67.3
					c178.928-75.002,227.149-280.141,208.289-744.024c0,0-52.072-205.445-188.773-389.012
					c-42.009-56.405-111.453-105.939-200.895-144.315c-0.044,0-0.044,0-0.044,0c-201.594-86.51-504.884-116.31-824.976-40.564
					C1479.839,805.397,1464.48,1507.15,1464.48,1507.15z"/>
			</g>
			<g>
				<path style="fill:#C9E1F7;" d="M1509.682,1845.139c51.897,80.121,162.562,183.347,397.195,236.12
					c416.623,93.774,898.534-7.351,1041.537-67.3c178.928-75.002,227.149-280.141,208.289-744.024
					c0,0-52.072-205.445-188.773-389.012c-42.009-56.405-111.453-105.939-200.895-144.315
					c3.719,1.794,228.068,111.146,225.531,347.398c-2.494,238.265-320.617,1218.014-1460.523,769.797
					C1524.516,1850.828,1517.078,1847.939,1509.682,1845.139z"/>
			</g>
			<g>
				<path style="fill:#052366;" d="M2278.789,2136.89c-117.759,0-247.876-9.763-375.757-38.538
					c-220.249-49.556-332.222-144.094-387.378-214.675c-60.928-77.979-68.306-144.289-68.589-147.075
					c-0.059-0.591-0.093-1.184-0.093-1.777v-227.686c0.166-7.651,4.614-180.576,66.323-369.956
					c82.612-253.538,229.468-411.968,424.702-458.164c217.222-51.401,445.405-57.625,642.519-17.529
					c184.111,37.449,330.43,113.618,401.445,208.979c137.197,184.238,189.541,386.638,191.704,395.164
					c0.298,1.177,0.474,2.378,0.522,3.591c19.766,485.681-37.549,684.785-219.023,760.869
					c-73.823,30.95-233.247,71.57-422.998,92.549C2460.943,2130.518,2373.887,2136.89,2278.789,2136.89z M1481.983,1733.736
					c0.962,6.887,10.366,64.155,62.842,130.398c51.777,65.361,157.29,153.13,365.894,200.068
					c396.343,89.18,874.477-0.808,1030.913-66.394c164.688-69.045,216.475-258.889,197.656-725.256
					c-5.352-19.944-58.96-211.384-185.4-381.174c-65.938-88.543-204.565-159.829-380.347-195.583
					c-192.246-39.106-415.093-32.964-627.485,17.292c-185.322,43.85-319.727,190.188-399.478,434.941
					c-60.117,184.512-64.561,357.766-64.6,359.495L1481.983,1733.736z"/>
			</g>
			<g>
				<g>
					<path style="fill:#052366;" d="M1464.48,1734.824c1.576,8.008,3.194,15.84,4.945,23.586
						c221.329,318.955,1003.816,295.194,1304.524,166.632c140.596-447.867-52.948-806.292-52.948-806.292
						c-17.066-9.233-33.869-17.897-50.409-26.036c-199.845-98.325-357.506-119.81-357.506-119.81l-126.725,104.189
						c-164.006,49.885-294.493,48.528-371.508-34.744l-5.207-142.346c0,0-151.01,30.412-238.658,106.771
						C1453.19,1245.606,1425.491,1531.829,1464.48,1734.824z"/>
				</g>
				<g>
					<path style="fill:#052366;" d="M2222.227,2031.412c-44.102,0-88.164-1.438-131.499-4.404
						c-178.882-12.246-499.331-62.129-635.674-258.623c-1.284-1.851-2.197-3.931-2.695-6.128
						c-23.828-105.664-28.335-235.347-12.695-365.161c17.075-141.687,57.056-279.334,115.625-398.064
						c1.025-2.078,2.451-3.931,4.199-5.452c90.122-78.525,240.376-109.443,246.729-110.723c5.049-1.008,10.264,0.239,14.292,3.418
						c4.033,3.181,6.465,7.971,6.65,13.103l4.961,135.691c66.919,67.527,180.151,76.113,345.815,26.27l124.019-101.936
						c3.77-3.093,8.633-4.48,13.477-3.821c7.676,1.045,190.601,26.987,413.892,147.761c2.998,1.621,5.459,4.082,7.075,7.08
						c2.026,3.75,49.946,93.518,80.923,239.902c28.545,134.888,47.09,345.002-26.68,579.968c-1.533,4.875-5.117,8.84-9.819,10.85
						C2647.871,1997.977,2434.795,2031.412,2222.227,2031.412z M1485.762,1751.204c129.165,182.156,435.615,229.121,607.354,240.876
						c243.33,16.66,509.561-15.447,666.523-80.015c68.525-224.063,50.854-424.187,23.701-553.213
						c-26.055-123.821-65.522-207.463-75.435-227.283c-190.605-102.163-353.735-134.006-389.81-140.125l-120.635,99.155
						c-1.772,1.458-3.818,2.554-6.016,3.223c-185.283,56.382-312.666,43.435-389.424-39.582c-2.842-3.071-4.487-7.061-4.639-11.243
						l-4.429-121.057c-42.607,10.881-143.14,40.945-207.837,95.771C1460.718,1272.1,1445.494,1568.262,1485.762,1751.204z"/>
				</g>
			</g>
			<g>
				<g>
					<path style="fill:#42BAFC;" d="M1768.248,1500.838c-10.691-57.63-25.273-114.341-37.337-147.08
						c-22.811,29.497-56.661,84.04-87.631,142.1c-4.79,8.981-15.902,12.452-24.94,7.771l-44.66-23.125
						c-9.218-4.773-12.755-16.141-7.838-25.284c10.441-19.413,29.039-53.135,49.97-87.143
						c55.813-90.67,88.604-122.122,125.495-120.276c46.756,2.38,69.988,56.689,92.316,143.552
						c9.468,36.828,16.759,73.124,20.741,94.249c1.926,10.213-4.907,19.988-15.153,21.732l-49.583,8.441
						C1779.614,1517.481,1770.101,1510.826,1768.248,1500.838z"/>
				</g>
				<g>
					<path style="fill:#42BAFC;" d="M2284.724,1528.142c23.222-53.817,50.034-105.874,69.067-135.115
						c15.691,33.826,36.584,94.524,53.886,158.012c2.677,9.82,12.74,15.672,22.592,13.116l48.68-12.63
						c10.048-2.607,16.021-12.906,13.257-22.912c-5.869-21.247-16.514-58.257-29.37-96.064
						c-34.284-100.801-59.272-138.749-95.652-145.142c-46.117-8.062-80.829,39.731-121.89,119.467
						c-17.409,33.806-32.579,67.576-41.153,87.289c-4.146,9.531,0.346,20.578,9.948,24.554l46.471,19.241
						C2269.946,1541.845,2280.699,1537.469,2284.724,1528.142z"/>
				</g>
				<path style="fill:#42BAFC;" d="M1918.874,1610.854c62.135,24.883,127.22,26.151,195.722,0.077
					c9.544-3.633,19.672,3.816,19.075,14.01c-3.407,58.251-22.081,210.509-124.225,209.456
					c-102.688-1.059-110.565-153.624-109.924-210.601C1899.635,1613.876,1909.665,1607.166,1918.874,1610.854z"/>
				
					<radialGradient id="SVGID_1_" cx="2725.8047" cy="-9961.3115" r="471.9553" gradientTransform="matrix(0.1249 -1.1586 1.1579 0.1248 12910.042 5776.625)" gradientUnits="userSpaceOnUse">
					<stop  offset="0" style="stop-color:#0064BF"/>
					<stop  offset="0.0185" style="stop-color:#0061B9"/>
					<stop  offset="0.2097" style="stop-color:#004481"/>
					<stop  offset="0.3955" style="stop-color:#002B53"/>
					<stop  offset="0.5717" style="stop-color:#00192F"/>
					<stop  offset="0.7358" style="stop-color:#000B15"/>
					<stop  offset="0.8833" style="stop-color:#000305"/>
					<stop  offset="1" style="stop-color:#000000"/>
				</radialGradient>
				<path style="fill:url(#SVGID_1_);" d="M1775.216,828.528c301.812,32.523,520.1,303.702,487.557,605.695
					c-32.542,301.994-303.591,520.443-605.404,487.92c-301.813-32.523-520.1-303.702-487.557-605.696
					C1202.354,1014.454,1473.403,796.005,1775.216,828.528z"/>
				
					<radialGradient id="SVGID_00000106860055013559142400000015201654911196318874_" cx="2746.8521" cy="-9418.415" r="471.9553" gradientTransform="matrix(0.1249 -1.1586 1.1579 0.1248 12910.042 5776.625)" gradientUnits="userSpaceOnUse">
					<stop  offset="0" style="stop-color:#0064BF"/>
					<stop  offset="0.0185" style="stop-color:#0061B9"/>
					<stop  offset="0.2097" style="stop-color:#004481"/>
					<stop  offset="0.3955" style="stop-color:#002B53"/>
					<stop  offset="0.5717" style="stop-color:#00192F"/>
					<stop  offset="0.7358" style="stop-color:#000B15"/>
					<stop  offset="0.8833" style="stop-color:#000305"/>
					<stop  offset="1" style="stop-color:#000000"/>
				</radialGradient>
				<path style="fill:url(#SVGID_00000106860055013559142400000015201654911196318874_);" d="M2406.465,871.896
					c301.813,32.523,520.1,303.702,487.557,605.695c-32.542,301.994-303.591,520.443-605.404,487.92
					c-301.813-32.523-520.1-303.702-487.557-605.696C1833.603,1057.822,2104.652,839.373,2406.465,871.896z"/>
			</g>
			<g>
				<g>
					<path style="fill:#42BAFC;" d="M2947.469,1524.134c40.45-172.711,129.057-299.648,197.909-283.522
						c57.54,12.656,92.81,59.25,92.81,59.25l-0.016,0.067c40.541,44.988,50.04,164.586,19.084,296.759
						c-31.546,134.692-94.938,239.069-152.092,258.647l-0.007,0.029c-30.307,10.855-71.577,18.495-103.965,11.075
						c-0.763-0.143-1.537-0.209-2.296-0.386c-2.366-0.555-4.667-1.306-6.924-2.178c-0.068-0.024-0.14-0.04-0.208-0.063l0.006-0.027
						C2928.509,1839.017,2908.452,1690.729,2947.469,1524.134z"/>
				</g>
				<g>
					<path style="fill:#3A9DEF;" d="M3241.126,1654.785c0,0-85.53,167.093-147.567,164.159
						c-62.038-2.934-83.831-117.212-83.831-117.212l-82.132-7.437l14.62,103.558c0,0,44.077,34.344,99.011,34.715
						c0,0,26.777,47.8,86.097,0c59.32-47.8,74.644-83.067,78.106-90.054c3.463-6.987,18.969-42.369,18.969-42.369"/>
				</g>
				<g style="opacity:0.61;">
					<path style="fill:#FFFFFF;" d="M3151.764,1308.816l9.71,84.19c0,0-43.993,59.762-44.562,60.769
						c-0.568,1.007-8.599,8.015-9.033,9.534c-0.434,1.519-8.679,22.349-10.415,21.698c-1.736-0.651-29.873-51.208-29.873-51.208
						l44.41-78.548"/>
				</g>
				<g style="opacity:0.61;">
					<path style="fill:#FFFFFF;" d="M3070.998,1269.935c0,0,32.573,5.465,71.615,28.465c0,0-31.805,39.322-51.592,77.897
						c-19.787,38.575-26.209,53.053-26.209,53.053s-75.188-15.192-72.15-21.863
						C2995.699,1400.817,3029.125,1305.263,3070.998,1269.935z"/>
				</g>
				<g>
					<path style="fill:#052366;" d="M3029.575,1886.902c-10.591,0-21.348-0.945-31.777-3.286c-1.089-0.156-2.007-0.313-2.915-0.525
						c-2.803-0.659-5.659-1.538-8.687-2.686c-0.112-0.037-0.22-0.076-0.322-0.11c-0.527-0.19-1.05-0.405-1.558-0.642
						c-36.304-14.915-61.289-61.089-70.405-130.222c-8.638-65.493-2.769-146.934,16.519-229.289l0,0
						c20.054-85.64,52.373-163.274,90.991-218.601c41.763-59.827,87.222-87.512,127.944-77.971
						c62.891,13.828,101.182,63.616,102.778,65.728c0.015,0.017,0.024,0.032,0.039,0.049
						c44.844,51.458,53.77,176.182,22.114,311.333c-32.622,139.277-97.827,247.888-162.505,270.881
						c-0.244,0.1-0.488,0.193-0.732,0.283C3099.458,1875.997,3065.537,1886.9,3029.575,1886.902z M2991.763,1863.812h0.049H2991.763
						z M2998.657,1847.691c1.714,0.635,3.008,1.035,4.229,1.318c0.425,0.037,0.991,0.125,1.558,0.229
						c0.22,0.042,0.439,0.088,0.659,0.139c28.867,6.609,66.973-0.881,93.34-10.203c0.342-0.144,0.693-0.276,1.05-0.4
						c44.888-15.376,107.642-104.839,140.723-246.079c32.261-137.747,16.851-245.652-15.044-281.05
						c-0.562-0.62-1.069-1.274-1.528-1.958c-4.59-5.632-35.552-41.76-82.026-51.982c-25.693-6.035-58.965,17.275-91.489,63.872
						c-36.143,51.775-66.543,125.127-85.615,206.548l0,0c-39.292,167.773-14.331,300.581,33.643,319.36
						C2998.325,1847.552,2998.491,1847.62,2998.657,1847.691z M2947.471,1524.134h0.049H2947.471z"/>
				</g>
				<g>
					<path style="fill:#5C7293;" d="M3062.098,1662.798c-0.744,62.53,15.14,108.696,44.24,115.478
						c42.708,10.021,97.669-68.744,122.786-175.908c6.826-29.231,10.765-57.543,11.946-83.448
						c3.238-69.182-12.777-121.386-43.846-128.65c-42.752-10.02-97.712,68.745-122.786,175.865
						C3066.386,1600.399,3062.404,1633.436,3062.098,1662.798z"/>
				</g>
				<g>
					<path style="fill:#445D82;" d="M3062.098,1662.798c1.707,4.813,2.713,7.526,2.713,7.526s41.308-174.202,96.662-200.5
						c55.354-26.299,79.596,49.097,79.596,49.097c3.238-69.182-12.777-121.386-43.846-128.65
						c-42.752-10.02-97.712,68.745-122.786,175.865C3066.386,1600.399,3062.404,1633.436,3062.098,1662.798z"/>
				</g>
				<g>
					<path style="fill:#052366;" d="M3113.526,1787.972c-3.11,0-6.187-0.349-9.224-1.06c-24.429-5.72-41.519-33.044-48.12-76.941
						c-6.187-41.152-2.773-92.944,9.614-145.835c12.388-52.891,32.324-100.813,56.143-134.936
						c25.415-36.401,52.866-53.289,77.285-47.571c24.429,5.72,41.519,33.047,48.125,76.941c6.187,41.152,2.773,92.944-9.614,145.835
						C3212.798,1710.88,3159.766,1787.969,3113.526,1787.972z M3189.751,1398.26c-15.728,0-34.8,14.595-53.286,41.079
						c-22.563,32.324-41.538,78.081-53.423,128.835l0,0c-11.89,50.757-15.205,100.181-9.346,139.163
						c5.371,35.713,17.998,58.43,34.648,62.329c33.159,7.773,86.172-58.406,112.144-169.299
						c11.89-50.757,15.205-100.178,9.341-139.16c-5.371-35.713-17.998-58.433-34.648-62.331
						C3193.423,1398.463,3191.612,1398.26,3189.751,1398.26z M3074.419,1566.156h0.049H3074.419z"/>
				</g>
				<g>
					<path style="fill:#052366;" d="M3100.479,1750.103c-2.666,0-5.303-0.298-7.91-0.906c-15.332-3.591-27.417-17.119-34.961-39.124
						c-1.362-3.977,0.757-8.306,4.731-9.67c3.979-1.362,8.311,0.757,9.673,4.734c4.014,11.709,11.44,26.284,24.028,29.233
						c27.949,6.514,74.399-51.638,96.396-145.554c21.997-93.889,6.187-166.631-21.763-173.193
						c-6.338-1.465-13.433,0.144-21.123,4.761c-3.594,2.151-8.271,0.998-10.444-2.61c-2.163-3.606-0.996-8.281,2.612-10.447
						c11.196-6.719,22.119-8.904,32.402-6.536c41.475,9.739,56.021,93.852,33.14,191.497
						C3185.825,1683.814,3140.23,1750.103,3100.479,1750.103z"/>
				</g>
				<g>
					<path style="fill:#052366;" d="M3086.333,1871.815c-4.756,0-9.448-0.535-14.067-1.619
						c-71.45-16.733-96.523-161.777-57.08-330.203l0,0c18.364-78.396,47.92-149.426,83.223-200.003
						c37.661-53.957,78.398-78.997,114.551-70.51c71.455,16.733,96.523,161.775,57.08,330.2
						c-18.364,78.398-47.92,149.426-83.223,200.005C3153.965,1846.751,3118.809,1871.815,3086.333,1871.815z M3027.969,1542.986
						l12.783,2.993c-37.93,161.943-10.679,287.371,37.5,298.655c24.712,5.786,56.401-16.084,87.036-59.976
						c33.442-47.913,61.567-115.732,79.185-190.964c37.93-161.941,10.679-287.368-37.5-298.652
						c-24.678-5.774-56.396,16.086-87.036,59.976c-33.442,47.913-61.567,115.73-79.185,190.962L3027.969,1542.986z"/>
				</g>
				<g>
					<path style="fill:#052366;" d="M3151.758,1712.935c-3.506,0-6.655-2.432-7.432-5.991l-48.877-224.006
						c-0.898-4.109,1.704-8.167,5.815-9.063c4.116-0.884,8.164,1.711,9.058,5.815l48.877,224.006
						c0.898,4.109-1.704,8.164-5.815,9.063C3152.837,1712.877,3152.295,1712.935,3151.758,1712.935z"/>
				</g>
			</g>
			<g>
				<path style="fill:#42BAFC;" d="M1889.418,770.259c138.145,139.327,441.872,42.971,441.872,42.971
					c210.259-112.634,370.545-101.388,370.545-101.388c-37.239-57.63-162.956-91.542-304.208-99.638
					c-124.624-7.133-261.325,5.907-359.913,40.476c-79.728,31.681-117.141,67.476-134.294,91.149
					C1891.824,759.8,1889.418,770.259,1889.418,770.259z"/>
			</g>
			<g>
				<path style="fill:#3A9DEF;" d="M1889.418,770.259c138.145,139.327,441.872,42.971,441.872,42.971
					c210.259-112.634,370.545-101.388,370.545-101.388c-37.239-57.63-162.956-91.542-304.208-99.638
					c0,0,136.133,26.561,53.429,79.947c-82.659,53.385-255.943,122.392-408.79,100.25c-92.68-13.434-126.593-34.263-138.845-48.572
					C1891.824,759.8,1889.418,770.259,1889.418,770.259z"/>
			</g>
			<g>
				<path style="fill:#052366;" d="M2116.47,863.465c-85.337,0.003-177.231-18.105-239.473-80.879
					c-4.229-4.263-5.977-10.396-4.634-16.245c0.693-3.003,18.525-74.194,158.892-129.919c0.22-0.088,0.439-0.171,0.664-0.249
					c101.631-35.676,251.767-50.898,391.811-39.724c71.138,5.674,242.08,27.353,292.822,105.889
					c3.599,5.569,3.74,12.693,0.366,18.401c-3.364,5.708-9.668,9.048-16.289,8.56c-2.578-0.164-159.048-8.848-361.074,99.358
					c-0.947,0.508-1.943,0.928-2.969,1.255C2329.307,832.218,2228.555,863.463,2116.47,863.465z M1910.23,765.88
					c127.939,114.065,392.158,37.788,414.311,31.111c149.399-79.7,273.252-98.242,335.474-102.092
					c-45.601-31.589-131.89-55.005-239.067-63.555c-135.332-10.798-279.785,3.665-377.099,37.744
					C1951.036,706.004,1919.786,748.118,1910.23,765.88z"/>
			</g>
			<g>
				<path style="fill:#052366;" d="M2706.409,1109.068c59.259-78.176,133.086-144.926,216.947-195.627
					c8.378-5.014,16.563,7.037,8.582,12.912c-39.002,27.211-75.27,58.133-108.16,92.445c-32.534,33.73-63.038,70.694-88.39,109.928
					C2722.003,1148.465,2692.975,1128.956,2706.409,1109.068L2706.409,1109.068z"/>
			</g>
		</g>
	</g>
</g>
</svg>
